{"title":"The Diving Bell and the Butterfly-720p MP4 AAC x264 BRRip 2007-C","uid":7802916,"size":2927520262,"categoryP":"video","categoryS":"hd___movies","magnet":"?xt=urn:btih:4a7da89e6f1bbb9f25adb53d15762aaf6e4a67db&amp;dn=The+Diving+Bell+and+the+Butterfly-720p+MP4+AAC+x264+BRRip+2007-C&amp;tr=udp%3A%2F%2Ftracker.openbittorrent.com%3A80&amp;tr=udp%3A%2F%2Fopen.demonii.com%3A1337&amp;tr=udp%3A%2F%2Ftracker.coppersurfer.tk%3A6969&amp;tr=udp%3A%2F%2Fexodus.desync.com%3A6969","seeders":2,"leechers":2,"uploader":"Caveman44","files":-1,"time":1352326601,"description":"Aka: Le scaphandre et le papillon\n &lt;a href=&quot;\nhttp://www.imdb.com/title/tt0401383/&quot; rel=&quot;nofollow&quot; target=&quot;_NEW&quot;&gt;\nhttp://www.imdb.com/title/tt0401383/&lt;/a&gt;\n\nSource: Le.Scaphandre.Et.Le.Papillon.720p.BluRay.x264-ESiR Thanks!\n\nSubs: Arabic, Brazilian, Bulgarian, Danish, Dutch, English, Farsi-Persian, Finnish, French, Norwegian, Portuguese, Romanian, Spanish and Swedish.\n\nSample and Screens included.\n\nGeneral\nComplete name                            : The Diving Bell and the Butterfly-720p MP4 AAC x264 BRRip 2007-CC.mp4\nFormat                                   : MPEG-4\nFormat profile                           : Base Media\nCodec ID                                 : isom\nFile size                                : 2.69 GiB\nDuration                                 : 1h 49mn\nOverall bit rate mode                    : Variable\nOverall bit rate                         : 3 508 Kbps\nEncoded date                             : UTC 2012-10-29 18:14:12\n\nVideo\nID                                       : 1\nFormat                                   : AVC\nFormat/Info                              : Advanced Video Codec\nFormat profile                           : &lt;a class=&quot;__cf_email__&quot; href=&quot;/cdn-cgi/l/email-protection&quot; data-cfemail=&quot;4c04252b240c0078627d&quot;&gt;[email&amp;#160;protected]&lt;/a&gt;&lt;script cf-hash='f9e31' type=&quot;text/javascript&quot;&gt;\n/* &lt;![CDATA[ */!function(){try{var t=&quot;currentScript&quot;in document?document.currentScript:function(){for(var t=document.getElementsByTagName(&quot;script&quot;),e=t.length;e--;)if(t[e].getAttribute(&quot;cf-hash&quot;))return t[e]}();if(t&amp;&amp;t.previousSibling){var e,r,n,i,c=t.previousSibling,a=c.getAttribute(&quot;data-cfemail&quot;);if(a){for(e=&quot;&quot;,r=parseInt(a.substr(0,2),16),n=2;a.length-n;n+=2)i=parseInt(a.substr(n,2),16)^r,e+=String.fromCharCode(i);e=document.createTextNode(e),c.parentNode.replaceChild(e,c)}}}catch(u){}}();/* ]]&gt; */&lt;/script&gt;\nFormat settings, CABAC                   : Yes\nFormat settings, ReFrames                : 5 frames\nCodec ID                                 : avc1\nCodec ID/Info                            : Advanced Video Coding\nDuration                                 : 1h 49mn\nSource duration                          : 1h 49mn\nBit rate                                 : 3 123 Kbps\nMaximum bit rate                         : 18.9 Mbps\nWidth                                    : 1 280 pixels\nHeight                                   : 688 pixels\nDisplay aspect ratio                     : 1.85:1\nFrame rate mode                          : Variable\nFrame rate                               : 24.000 fps\nMinimum frame rate                       : 19.048 fps\nMaximum frame rate                       : 24.390 fps\nColor space                              : YUV\nChroma subsampling                       : 4:2:0\nBit depth                                : 8 bits\nScan type                                : Progressive\nBits/(Pixel*Frame)                       : 0.148\nStream size                              : 2.39 GiB (89%)\nSource stream size                       : 2.39 GiB (89%)\nWriting library                          : x264 core 112\n\nAudio\nID                                       : 2\nFormat                                   : AAC\nFormat/Info                              : Advanced Audio Codec\nFormat profile                           : LC\nCodec ID                                 : 40\nDuration                                 : 1h 49mn\nBit rate mode                            : Variable\nBit rate                                 : 384 Kbps\nMaximum bit rate                         : 482 Kbps\nChannel(s)                               : 6 channels\nChannel positions                        : Front: L C R, Side: L R, LFE\nSampling rate                            : 48.0 KHz\nCompression mode                         : Lossy\nDelay relative to video                  : 83ms\nStream size                              : 302 MiB (11%)\nLanguage                                 : French\n\nEnjoy...\n\nRequested by w0rtez\n\nComing soon: The Horse Whisperer, 21 Grams, Monsters Ball, The Interpreter and more...","torrent":{"xt":"urn:btih:4a7da89e6f1bbb9f25adb53d15762aaf6e4a67db","amp;dn":"The+Diving+Bell+and+the+Butterfly-720p+MP4+AAC+x264+BRRip+2007-C","amp;tr":["udp%3A%2F%2Ftracker.openbittorrent.com%3A80","udp%3A%2F%2Fopen.demonii.com%3A1337","udp%3A%2F%2Ftracker.coppersurfer.tk%3A6969","udp%3A%2F%2Fexodus.desync.com%3A6969"],"infoHash":"4a7da89e6f1bbb9f25adb53d15762aaf6e4a67db","infoHashBuffer":{"type":"Buffer","data":[74,125,168,158,111,27,187,159,37,173,181,61,21,118,42,175,110,74,103,219]},"announce":[],"urlList":[]}}